<svg width="10" height="9" viewBox="0 0 10 9" fill="none" xmlns="http://www.w3.org/2000/svg">
<path d="M9.86168 4.87698C9.85837 4.51933 9.71427 4.17738 9.46059 3.92524L6.54419 1.00205C6.41682 0.875436 6.24452 0.804367 6.06492 0.804367C5.88533 0.804367 5.71303 0.875436 5.58566 1.00205C5.52194 1.06525 5.47136 1.14044 5.43685 1.22328C5.40234 1.30612 5.38457 1.39497 5.38457 1.48472C5.38457 1.57446 5.40234 1.66332 5.43685 1.74616C5.47136 1.829 5.52194 1.90419 5.58566 1.96738L7.82224 4.19717H1.02411C0.843815 4.19717 0.670902 4.26879 0.543412 4.39628C0.415922 4.52377 0.344299 4.69668 0.344299 4.87698C0.344299 5.05728 0.415922 5.23019 0.543412 5.35768C0.670902 5.48517 0.843815 5.55679 1.02411 5.55679H7.82224L5.58566 7.79338C5.45765 7.92048 5.38537 8.09324 5.38473 8.27364C5.3841 8.45403 5.45515 8.6273 5.58226 8.75531C5.70937 8.88332 5.88212 8.95559 6.06252 8.95623C6.24292 8.95687 6.41618 8.88582 6.54419 8.75871L9.46059 5.83552C9.71592 5.58171 9.86016 5.23699 9.86168 4.87698V4.87698Z" fill="white"/>
</svg>
