<svg width="135" height="27" viewBox="0 0 135 27" fill="none" xmlns="http://www.w3.org/2000/svg">
<path d="M30.18 21V16.93H34.58C37.99 16.93 40.19 14.972 40.19 11.584C40.19 8.196 37.99 6.26 34.58 6.26H26.88V21H30.18ZM34.228 9.23C36.054 9.23 36.912 9.78 36.912 11.584C36.912 13.432 36.054 13.96 34.228 13.96H30.18V9.23H34.228ZM45.7605 8.856V6.26H42.4605V8.856H45.7605ZM45.7605 21V9.978H42.4605V21H45.7605ZM51.6018 21L54.4398 17.304H54.6158L57.5418 21H61.5678L57.1678 15.566V15.368L61.5678 9.978H57.5858L54.7478 13.696H54.5718L51.6458 9.978H47.6198L52.0198 15.434V15.61L47.6198 21H51.6018ZM69.3113 21.22C72.8093 21.22 75.1413 19.548 75.1413 17.15V16.908H71.8413V17.128C71.8413 18.074 71.1593 18.58 69.2013 18.58C67.0673 18.58 66.2753 17.854 66.1873 16.16H75.1633C75.2073 15.786 75.2513 15.5 75.2513 15.104C75.2513 11.65 72.8533 9.758 69.2453 9.758C65.6153 9.758 63.1293 11.98 63.1293 15.5C63.1293 19.416 65.6373 21.22 69.3113 21.22ZM69.1793 12.332C71.1153 12.332 71.9953 12.97 72.0833 14.422H66.2313C66.3853 12.992 67.2213 12.332 69.1793 12.332ZM81.0507 21V6.26H77.7507V21H81.0507ZM89.444 21.22C92.854 21.22 94.9 19.856 94.9 17.788C94.9 15.962 93.8 14.972 90.852 14.642L88.498 14.356C87.046 14.18 86.738 13.938 86.738 13.366C86.738 12.662 87.156 12.376 88.806 12.376C90.83 12.376 91.27 12.838 91.27 13.74V13.872H94.57V13.806C94.57 11.122 92.524 9.758 88.916 9.758C85.132 9.758 83.482 11.298 83.482 13.234C83.482 15.082 84.714 16.072 86.914 16.314L90.016 16.688C91.314 16.864 91.644 17.04 91.644 17.656C91.644 18.316 91.226 18.602 89.466 18.602C87.596 18.602 86.98 18.338 86.98 17.348V17.15H83.68V17.216C83.68 19.768 85.726 21.22 89.444 21.22ZM104.878 21.22C109.476 21.22 112.402 18.932 112.402 15.192V14.862H108.728V15.192C108.728 17.128 107.628 18.052 104.944 18.052C101.71 18.052 100.5 16.908 100.5 13.63C100.5 10.352 101.71 9.208 104.944 9.208C107.628 9.208 108.728 10.132 108.728 12.068V12.398H112.402V12.068C112.402 8.328 109.454 6.04 104.878 6.04C100.016 6.04 97.0016 9.032 97.0016 13.63C97.0016 18.228 100.016 21.22 104.878 21.22ZM120.806 21.22C124.568 21.22 127.098 18.976 127.098 15.5C127.098 11.98 124.568 9.758 120.806 9.758C117.044 9.758 114.514 11.98 114.514 15.5C114.514 18.976 117.044 21.22 120.806 21.22ZM120.806 18.294C118.562 18.294 117.792 17.436 117.792 15.5C117.792 13.564 118.562 12.662 120.806 12.662C123.028 12.662 123.82 13.564 123.82 15.5C123.82 17.436 123.028 18.294 120.806 18.294ZM133.571 21V17.15H129.325V21H133.571Z" fill="white"/>
<path d="M7.82731 22.763L12.3097 15L15.8412 21.117C14.141 22.3443 12.0968 23.0033 10 23C9.25411 23 8.52721 22.918 7.82731 22.763ZM5.8906 22.12C4.60598 21.5391 3.45829 20.6938 2.52244 19.6393C1.58658 18.5847 0.883604 17.3447 0.459384 16H9.42308L5.8906 22.119V22.12ZM0.0514434 14C-0.0916414 12.5973 0.0645816 11.1801 0.509786 9.84224C0.95499 8.50436 1.67904 7.27623 2.63407 6.23901L7.11242 14H0.0514434ZM4.15985 4.88301C5.85972 3.65589 7.90359 2.9969 10 3.00001C10.7459 3.00001 11.4728 3.08201 12.1727 3.23701L7.69033 11L4.15985 4.88301ZM14.1094 3.88001C15.394 4.46089 16.5417 5.30619 17.4776 6.36073C18.4134 7.41527 19.1164 8.65534 19.5406 10H10.5769L14.1094 3.88001ZM19.9486 12C20.0916 13.4027 19.9354 14.8199 19.4902 16.1578C19.045 17.4956 18.321 18.7238 17.3659 19.761L12.8876 12H19.9506H19.9486Z" fill="white"/>
</svg>
