<svg width="25" height="25" viewBox="0 0 25 25" fill="none" xmlns="http://www.w3.org/2000/svg">
<path d="M9.78414 24.7037L15.3871 15L19.8014 22.6462C17.6763 24.1804 15.1209 25.0041 12.5 25C11.5676 25 10.659 24.8975 9.78414 24.7037ZM7.36324 23.9C5.75748 23.1739 4.32287 22.1173 3.15305 20.7991C1.98323 19.4809 1.1045 17.9308 0.57423 16.25H11.7789L7.36324 23.8987V23.9ZM0.0643043 13.75C-0.114552 11.9966 0.080727 10.2251 0.637232 8.55279C1.19374 6.88045 2.0988 5.34528 3.29259 4.04876L8.89052 13.75H0.0643043ZM5.19981 2.35376C7.32465 0.819864 9.87948 -0.00387347 12.5 1.36944e-05C13.4324 1.36944e-05 14.341 0.102514 15.2159 0.296263L9.61292 10L5.19981 2.35376ZM17.6368 1.10001C19.2425 1.82612 20.6771 2.88274 21.847 4.20091C23.0168 5.51909 23.8955 7.06918 24.4258 8.75H13.2211L17.6368 1.10001ZM24.9357 11.25C25.1146 13.0034 24.9193 14.7749 24.3628 16.4472C23.8063 18.1195 22.9012 19.6547 21.7074 20.9512L16.1095 11.25H24.9382H24.9357Z" fill="white"/>
</svg>
