<svg width="439" height="1309" viewBox="0 0 439 1309" fill="none" xmlns="http://www.w3.org/2000/svg">
<g clip-path="url(#clip0_106_126)">
<path fill-rule="evenodd" clip-rule="evenodd" d="M107.35 672.85C158.079 672.85 199.202 713.974 199.202 764.704C199.202 815.43 158.079 856.556 107.35 856.556C56.621 856.556 15.4961 815.43 15.4961 764.704C15.4961 713.974 56.621 672.85 107.35 672.85Z" fill="white"/>
<path fill-rule="evenodd" clip-rule="evenodd" d="M103.148 869.832C46.1801 869.832 2.62528e-06 823.651 1.3515e-07 766.684L0 763.592H3.09526C60.0595 763.592 106.24 809.772 106.24 866.736V869.832H103.148Z" fill="#3B3E46"/>
<path fill-rule="evenodd" clip-rule="evenodd" d="M211.6 763.592H214.696V766.684C214.696 823.65 168.514 869.832 111.553 869.832H108.456V866.737C108.456 809.773 154.636 763.592 211.6 763.592Z" fill="#3B7F81"/>
<path fill-rule="evenodd" clip-rule="evenodd" d="M111.553 761.38H108.456V758.284C108.456 701.322 154.64 655.141 211.6 655.141H214.696V658.239C214.696 715.201 168.515 761.38 111.553 761.38Z" fill="#3B3E46"/>
<path fill-rule="evenodd" clip-rule="evenodd" d="M3.09526 655.141C60.0612 655.141 106.24 701.322 106.24 758.283V761.38H103.148C46.1801 761.38 2.62531e-06 715.201 1.3544e-07 658.239L0 655.141H3.09526Z" fill="#3B7F81"/>
<path fill-rule="evenodd" clip-rule="evenodd" d="M53.1223 325.36C23.784 325.36 1.2822e-06 301.574 0 272.241C-1.2828e-06 242.894 23.784 219.12 53.1223 219.12C82.4572 219.12 106.24 242.894 106.24 272.241C106.24 301.574 82.4572 325.36 53.1223 325.36Z" fill="#3B3E46"/>
<path fill-rule="evenodd" clip-rule="evenodd" d="M53.1223 436.023C23.784 436.023 1.2825e-06 412.241 0 382.901C-1.28243e-06 353.562 23.784 329.783 53.1223 329.783C82.4572 329.783 106.24 353.562 106.24 382.901C106.24 412.241 82.4572 436.023 53.1223 436.023Z" fill="#FFC567"/>
<path fill-rule="evenodd" clip-rule="evenodd" d="M161.573 325.36C132.237 325.36 108.456 301.574 108.456 272.241C108.456 242.894 132.237 219.12 161.573 219.12C190.913 219.12 214.696 242.894 214.696 272.241C214.696 301.574 190.913 325.36 161.573 325.36Z" fill="#FFC567"/>
<path fill-rule="evenodd" clip-rule="evenodd" d="M214.696 438.237H161.573C132.238 438.237 108.456 413.463 108.456 382.905C108.456 352.342 132.238 327.57 161.573 327.57C190.916 327.57 214.696 352.342 214.696 382.905V438.237Z" fill="#3B7F81"/>
<path fill-rule="evenodd" clip-rule="evenodd" d="M325.348 818.929C325.348 848.267 301.568 872.048 272.23 872.048C242.892 872.048 219.109 848.267 219.109 818.929C219.109 789.589 242.892 765.808 272.23 765.808C301.568 765.808 325.348 789.589 325.348 818.929Z" fill="#3B3E46"/>
<path fill-rule="evenodd" clip-rule="evenodd" d="M436.035 818.929C436.035 848.267 412.253 872.048 382.918 872.048C353.578 872.048 329.796 848.267 329.796 818.929C329.796 789.589 353.578 765.808 382.918 765.808C412.253 765.808 436.035 789.589 436.035 818.929Z" fill="#FFC567"/>
<path fill-rule="evenodd" clip-rule="evenodd" d="M325.348 708.256C325.348 737.597 301.568 761.38 272.23 761.38C242.892 761.38 219.109 737.597 219.109 708.256C219.109 678.919 242.892 655.141 272.23 655.141C301.568 655.141 325.348 678.919 325.348 708.256Z" fill="#FFC567"/>
<path fill-rule="evenodd" clip-rule="evenodd" d="M436.026 655.144V710.48C436.026 741.037 411.252 765.81 380.694 765.81C350.132 765.81 325.36 741.037 325.36 710.48C325.36 679.919 350.132 655.144 380.694 655.144H436.026Z" fill="#3B7F81"/>
<path fill-rule="evenodd" clip-rule="evenodd" d="M163.787 163.784V53.1182H53.1211V163.784H163.787Z" fill="white"/>
<path fill-rule="evenodd" clip-rule="evenodd" d="M157.158 109.558L109.572 157.146L61.9849 109.558L109.572 61.9725L157.158 109.558Z" fill="#3B7F81"/>
<path fill-rule="evenodd" clip-rule="evenodd" d="M196.976 19.9169V86.3166C160.304 86.3166 130.576 56.5869 130.576 19.9169H196.976Z" fill="#3B3E46"/>
<path fill-rule="evenodd" clip-rule="evenodd" d="M19.9238 19.9189H86.3235C86.3235 56.5888 56.5947 86.3186 19.9238 86.3186V19.9189Z" fill="#3B3E46"/>
<path fill-rule="evenodd" clip-rule="evenodd" d="M19.9238 194.772V128.373C56.5947 128.373 86.3235 158.102 86.3236 194.772H19.9238Z" fill="#3B3E46"/>
<path fill-rule="evenodd" clip-rule="evenodd" d="M196.976 194.772H130.576C130.576 158.102 160.304 128.373 196.976 128.373V194.772Z" fill="#3B3E46"/>
<path fill-rule="evenodd" clip-rule="evenodd" d="M219.109 328.682C219.109 268.169 267.664 219.117 327.562 219.117C387.461 219.117 436.014 268.169 436.014 328.682V436.237L327.562 438.237C267.664 438.237 219.109 389.192 219.109 328.682Z" fill="white"/>
<path fill-rule="evenodd" clip-rule="evenodd" d="M303.213 370.733C303.213 334.671 332.941 305.437 369.614 305.437C406.283 305.437 436.013 334.671 436.013 370.733V436.023H369.614C332.941 436.023 303.213 406.794 303.213 370.733Z" fill="#1F2125"/>
<path fill-rule="evenodd" clip-rule="evenodd" d="M261.17 327.573C261.17 290.9 291.395 261.171 328.672 261.171C365.957 261.171 396.182 290.9 396.182 327.573C396.182 364.243 365.957 393.97 328.672 393.97C291.395 393.97 261.17 364.243 261.17 327.573Z" fill="#3B7F81"/>
<path fill-rule="evenodd" clip-rule="evenodd" d="M285.521 329.781C285.521 307.774 303.361 289.942 325.357 289.942C347.363 289.942 365.201 307.774 365.201 329.781C365.201 351.786 347.363 369.621 325.357 369.621C303.361 369.621 285.521 351.786 285.521 329.781Z" fill="#1F2125"/>
<path fill-rule="evenodd" clip-rule="evenodd" d="M4.78907e-06 545.582L0 436.021H110.665C171.788 436.021 221.332 485.077 221.332 545.582V655.14H110.665C49.5481 655.14 7.43424e-06 606.097 4.78907e-06 545.582Z" fill="#3B7F81"/>
<path fill-rule="evenodd" clip-rule="evenodd" d="M48.6851 545.581C48.6851 510.745 76.9254 482.505 111.763 482.505C146.603 482.505 174.845 510.745 174.845 545.581V608.664H111.763C76.9254 608.664 48.6851 580.421 48.6851 545.581Z" fill="#1F2125"/>
<path fill-rule="evenodd" clip-rule="evenodd" d="M1.8576e-06 478.52L0 436.024H42.4935C77.7007 436.024 106.24 464.566 106.24 499.766V542.263H63.7461C28.5406 542.263 3.39655e-06 513.728 1.8576e-06 478.52Z" fill="white"/>
<path fill-rule="evenodd" clip-rule="evenodd" d="M327.018 219.119H219.109V110.11C219.109 49.2997 267.91 -5.36871e-05 328.106 -5.63184e-05L436.014 -6.10352e-05V109.006C436.014 169.826 387.215 219.119 327.018 219.119Z" fill="#3B7F81"/>
<path fill-rule="evenodd" clip-rule="evenodd" d="M326.473 170.426C291.634 170.426 263.392 142.184 263.392 107.348C263.392 72.5066 291.634 44.2663 326.473 44.2663H389.552V107.348C389.552 142.184 361.308 170.426 326.473 170.426Z" fill="#1F2125"/>
<path fill-rule="evenodd" clip-rule="evenodd" d="M263.825 216.901H221.331V174.412C221.331 139.199 249.87 110.662 285.075 110.662H327.57V153.161C327.57 188.364 299.032 216.901 263.825 216.901Z" fill="#FFC567"/>
<path fill-rule="evenodd" clip-rule="evenodd" d="M436.01 489.143V599.81L380.677 544.473L436.01 489.143Z" fill="#3B7F81"/>
<path fill-rule="evenodd" clip-rule="evenodd" d="M436.014 655.14H219.109V436.021L436.014 655.14Z" fill="white"/>
<path fill-rule="evenodd" clip-rule="evenodd" d="M436.014 436.021L219.109 655.14V436.021H436.014Z" fill="#3B3E46"/>
<path fill-rule="evenodd" clip-rule="evenodd" d="M219.116 925.166V1035.83L163.782 980.499L219.116 925.166Z" fill="#FFC567"/>
<path fill-rule="evenodd" clip-rule="evenodd" d="M221.332 1088.96H9.578e-06L0 869.837L221.332 1088.96Z" fill="#3B7F81"/>
<path fill-rule="evenodd" clip-rule="evenodd" d="M221.332 869.837L9.578e-06 1088.96L0 869.837H221.332Z" fill="white"/>
<path fill-rule="evenodd" clip-rule="evenodd" d="M219.117 1035.83V925.166L274.45 980.499L219.117 1035.83Z" fill="#FFC567"/>
<path fill-rule="evenodd" clip-rule="evenodd" d="M216.904 869.837H438.236V1088.96L216.904 869.837Z" fill="#3B7F81"/>
<path fill-rule="evenodd" clip-rule="evenodd" d="M216.904 1088.96L438.236 869.837V1088.96H216.904Z" fill="white"/>
<path fill-rule="evenodd" clip-rule="evenodd" d="M163.787 1197.41C193.126 1197.41 216.909 1173.63 216.909 1144.29C216.909 1114.95 193.126 1091.17 163.787 1091.17C134.455 1091.17 110.67 1114.95 110.67 1144.29C110.67 1173.63 134.455 1197.41 163.787 1197.41Z" fill="#3B3E46"/>
<path fill-rule="evenodd" clip-rule="evenodd" d="M163.787 1308.07C193.126 1308.07 216.909 1284.29 216.909 1254.95C216.909 1225.62 193.126 1201.83 163.787 1201.83C134.455 1201.83 110.67 1225.62 110.67 1254.95C110.67 1284.29 134.455 1308.07 163.787 1308.07Z" fill="#FFC567"/>
<path fill-rule="evenodd" clip-rule="evenodd" d="M55.351 1197.41C84.6867 1197.41 108.471 1173.63 108.471 1144.29C108.471 1114.95 84.6867 1091.17 55.351 1091.17C26.0136 1091.17 2.2312 1114.95 2.2312 1144.29C2.2312 1173.63 26.0136 1197.41 55.351 1197.41Z" fill="#FFC567"/>
<path fill-rule="evenodd" clip-rule="evenodd" d="M2.41857e-06 1308.07H53.1223C82.458 1308.07 106.24 1283.3 106.24 1252.74C106.24 1222.18 82.458 1197.41 53.1223 1197.41C23.7816 1197.41 -1.33572e-06 1222.18 0 1252.74L2.41857e-06 1308.07Z" fill="#3B7F81"/>
<path fill-rule="evenodd" clip-rule="evenodd" d="M234.622 1198.51C234.622 1147.79 275.746 1106.66 326.48 1106.66C377.204 1106.66 418.328 1147.79 418.328 1198.51C418.328 1249.24 377.204 1290.37 326.48 1290.37C275.746 1290.37 234.622 1249.24 234.622 1198.51Z" fill="white"/>
<path fill-rule="evenodd" clip-rule="evenodd" d="M436.035 1204.93C436.035 1261.89 389.856 1308.07 332.89 1308.07H329.796V1304.97C329.796 1248.01 375.972 1201.83 432.941 1201.83H436.035V1204.93Z" fill="#3B3E46"/>
<path fill-rule="evenodd" clip-rule="evenodd" d="M329.796 1094.26V1091.17H332.89C389.857 1091.17 436.035 1137.35 436.035 1194.31V1197.41H432.941C375.975 1197.41 329.796 1151.23 329.796 1094.26Z" fill="#3B7F81"/>
<path fill-rule="evenodd" clip-rule="evenodd" d="M327.57 1194.31V1197.41H324.476C267.508 1197.41 221.331 1151.23 221.331 1094.26V1091.17H224.427C281.39 1091.17 327.57 1137.35 327.57 1194.31Z" fill="#3B3E46"/>
<path fill-rule="evenodd" clip-rule="evenodd" d="M221.331 1304.98C221.331 1248.01 267.511 1201.83 324.476 1201.83H327.57V1204.93C327.57 1261.89 281.392 1308.07 224.427 1308.07H221.331V1304.98Z" fill="#3B7F81"/>
</g>
<defs>
<clipPath id="clip0_106_126">
<rect width="439" height="1309" fill="white"/>
</clipPath>
</defs>
</svg>
